<svg width="419" height="88" viewBox="0 0 419 88" fill="none" xmlns="http://www.w3.org/2000/svg">
<rect width="419" height="88" rx="8" fill="white" fill-opacity="0.24"/>
<g clip-path="url(#clip0_164_6109)">
<path d="M177.25 51.4517H189.061V47.9395H181.448V34.7102H177.25V51.4517Z" fill="white" fill-opacity="0.8"/>
<path d="M196.059 49.1101C194.375 49.1101 193.498 47.6584 193.498 45.4809C193.498 43.3033 194.375 41.8282 196.059 41.8282C197.743 41.8282 198.644 43.3033 198.644 45.4809C198.644 47.6584 197.743 49.1101 196.059 49.1101ZM196.083 51.8262C199.996 51.8262 202.558 49.0867 202.558 45.4809C202.558 41.875 199.996 39.1355 196.083 39.1355C192.193 39.1355 189.584 41.875 189.584 45.4809C189.584 49.0867 192.193 51.8262 196.083 51.8262Z" fill="white" fill-opacity="0.8"/>
<path d="M209.332 55.5962C211.134 55.5962 212.723 55.1982 213.791 54.2616C214.763 53.3952 215.403 52.084 215.403 50.2811V39.4635H211.703V40.7513H211.656C210.944 39.7445 209.853 39.1123 208.241 39.1123C205.229 39.1123 203.141 41.5943 203.141 45.1065C203.141 48.7825 205.679 50.7962 208.407 50.7962C209.877 50.7962 210.802 50.2108 211.514 49.4147H211.609V50.6089C211.609 52.0606 210.921 52.9035 209.284 52.9035C208.003 52.9035 207.363 52.365 207.15 51.7328H203.402C203.782 54.2382 205.987 55.5962 209.332 55.5962ZM209.308 47.963C207.861 47.963 206.912 46.7923 206.912 44.9894C206.912 43.163 207.861 41.9923 209.308 41.9923C210.921 41.9923 211.775 43.3504 211.775 44.966C211.775 46.6518 210.992 47.963 209.308 47.963Z" fill="white" fill-opacity="0.8"/>
<path d="M223.011 49.1101C221.327 49.1101 220.45 47.6584 220.45 45.4809C220.45 43.3033 221.327 41.8282 223.011 41.8282C224.695 41.8282 225.596 43.3033 225.596 45.4809C225.596 47.6584 224.695 49.1101 223.011 49.1101ZM223.035 51.8262C226.948 51.8262 229.51 49.0867 229.51 45.4809C229.51 41.875 226.948 39.1355 223.035 39.1355C219.145 39.1355 216.536 41.875 216.536 45.4809C216.536 49.0867 219.145 51.8262 223.035 51.8262Z" fill="white" fill-opacity="0.8"/>
<path d="M230.638 51.4517H234.504V39.4634H230.638V51.4517ZM230.638 37.8009H234.504V34.7102H230.638V37.8009Z" fill="white" fill-opacity="0.8"/>
<path d="M236.182 55.4089H240.048V50.2108H240.096C240.855 51.2177 241.969 51.8265 243.535 51.8265C246.713 51.8265 248.824 49.3445 248.824 45.4577C248.824 41.8518 246.855 39.1123 243.63 39.1123C241.969 39.1123 240.783 39.8382 239.953 40.9152H239.882V39.4635H236.182V55.4089ZM242.539 48.8762C240.878 48.8762 239.93 47.5416 239.93 45.5982C239.93 43.6547 240.783 42.1796 242.467 42.1796C244.128 42.1796 244.91 43.5377 244.91 45.5982C244.91 47.6352 244.009 48.8762 242.539 48.8762Z" fill="white" fill-opacity="0.8"/>
<path d="M255.118 51.8264C258.296 51.8264 260.644 50.4684 260.644 47.846C260.644 44.7786 258.13 44.2401 255.995 43.8889C254.454 43.6079 253.078 43.4908 253.078 42.6479C253.078 41.8986 253.813 41.5474 254.762 41.5474C255.829 41.5474 256.565 41.8752 256.707 42.9523H260.265C260.075 40.5874 258.225 39.1123 254.786 39.1123C251.916 39.1123 249.544 40.4235 249.544 42.9523C249.544 45.7621 251.797 46.324 253.908 46.6752C255.521 46.9562 256.992 47.0733 256.992 48.1504C256.992 48.923 256.256 49.3445 255.094 49.3445C253.813 49.3445 253.007 48.7591 252.865 47.565H249.212C249.331 50.2108 251.56 51.8264 255.118 51.8264Z" fill="white" fill-opacity="0.8"/>
<path d="M265.896 51.8029C267.579 51.8029 268.647 51.1473 269.524 49.9765H269.595V51.4517H273.295V39.4634H269.429V46.16C269.429 47.5883 268.623 48.5717 267.295 48.5717C266.062 48.5717 265.469 47.8458 265.469 46.5346V39.4634H261.626V47.3307C261.626 50 263.097 51.8029 265.896 51.8029Z" fill="white" fill-opacity="0.8"/>
<path d="M274.976 51.4518H278.842V44.7318C278.842 43.3035 279.554 42.2967 280.764 42.2967C281.926 42.2967 282.471 43.046 282.471 44.3338V51.4518H286.337V44.7318C286.337 43.3035 287.025 42.2967 288.258 42.2967C289.42 42.2967 289.966 43.046 289.966 44.3338V51.4518H293.832V43.6547C293.832 40.9621 292.456 39.1123 289.705 39.1123C288.14 39.1123 286.835 39.7679 285.887 41.2196H285.839C285.222 39.9318 284.013 39.1123 282.424 39.1123C280.669 39.1123 279.507 39.9318 278.748 41.1728H278.676V39.4635H274.976V51.4518Z" fill="white" fill-opacity="0.8"/>
<path fill-rule="evenodd" clip-rule="evenodd" d="M146.441 63.1591C157.356 63.1591 166.205 54.4232 166.205 43.6469C166.205 32.8707 157.356 24.1348 146.441 24.1348C135.525 24.1348 126.676 32.8707 126.676 43.6469C126.676 54.4232 135.525 63.1591 146.441 63.1591ZM152.607 33.2244C152.907 32.1719 151.872 31.5495 150.927 32.2141L137.737 41.4904C136.713 42.2111 136.874 43.6469 137.98 43.6469H141.453V43.6204H148.222L142.706 45.5417L140.275 54.0696C139.975 55.1221 141.009 55.7444 141.954 55.0798L155.144 45.8035C156.169 45.0828 156.007 43.6469 154.902 43.6469H149.635L152.607 33.2244Z" fill="white" fill-opacity="0.8"/>
</g>
<defs>
<clipPath id="clip0_164_6109">
<rect width="168" height="40" fill="white" transform="translate(126 24)"/>
</clipPath>
</defs>
</svg>
