<svg width="107" height="40" viewBox="0 0 107 40" fill="none" xmlns="http://www.w3.org/2000/svg">
<g clip-path="url(#clip0_2015_425)">
<g clip-path="url(#clip1_2015_425)">
<path d="M0 8C0 5.79086 1.79086 4 4 4H28C30.2091 4 32 5.79086 32 8V32C32 34.2091 30.2091 36 28 36H4C1.79086 36 0 34.2091 0 32V8Z" fill="#BEF264"/>
<rect x="15.3334" y="9.33325" width="1.33333" height="8" rx="0.666667" fill="#022C22"/>
<rect x="15.3334" y="22.6665" width="1.33333" height="8" rx="0.666667" fill="#022C22"/>
<rect x="23.071" y="11.9861" width="1.33333" height="8" rx="0.666667" transform="rotate(45 23.071 11.9861)" fill="#022C22"/>
<rect x="13.6429" y="21.4141" width="1.33333" height="8" rx="0.666667" transform="rotate(45 13.6429 21.4141)" fill="#022C22"/>
<rect x="18.6667" y="20.6665" width="1.33333" height="8" rx="0.666667" transform="rotate(-90 18.6667 20.6665)" fill="#022C22"/>
<rect x="5.33337" y="20.6665" width="1.33333" height="8" rx="0.666667" transform="rotate(-90 5.33337 20.6665)" fill="#022C22"/>
<rect x="17.4142" y="22.3569" width="1.33333" height="8" rx="0.666667" transform="rotate(-45 17.4142 22.3569)" fill="#022C22"/>
<rect x="7.98621" y="12.929" width="1.33333" height="8" rx="0.666667" transform="rotate(-45 7.98621 12.929)" fill="#022C22"/>
<path d="M48 30.307V9.33325H50.9363V30.307H48ZM50.5468 21.3183V18.6216H59.4457V21.3183H50.5468ZM50.5468 12.0299V9.33325H60.7041V12.0299H50.5468Z" fill="white"/>
<path d="M62.7685 30.307V9.33325H65.6149V30.307H62.7685Z" fill="white"/>
<path d="M75.4295 30.6666C73.9314 30.6666 72.6131 30.337 71.4745 29.6778C70.3359 28.9987 69.437 28.0698 68.7779 26.8913C68.1387 25.7128 67.8191 24.3545 67.8191 22.8164C67.8191 21.2783 68.1387 19.92 68.7779 18.7415C69.4171 17.563 70.3059 16.6441 71.4445 15.9849C72.5831 15.3058 73.8915 14.9662 75.3696 14.9662C76.8478 14.9662 78.1561 15.3058 79.2947 15.9849C80.4333 16.6441 81.3222 17.563 81.9614 18.7415C82.6006 19.92 82.9202 21.2783 82.9202 22.8164C82.9202 24.3545 82.6006 25.7128 81.9614 26.8913C81.3222 28.0698 80.4333 28.9987 79.2947 29.6778C78.1761 30.337 76.8877 30.6666 75.4295 30.6666ZM75.4295 28.0598C76.3284 28.0598 77.1274 27.8401 77.8265 27.4007C78.5257 26.9412 79.065 26.322 79.4445 25.543C79.844 24.764 80.0438 23.8551 80.0438 22.8164C80.0438 21.7777 79.844 20.8688 79.4445 20.0898C79.065 19.3108 78.5157 18.7015 77.7966 18.2621C77.0775 17.8027 76.2685 17.573 75.3696 17.573C74.4508 17.573 73.6418 17.8027 72.9426 18.2621C72.2435 18.7015 71.6942 19.3108 71.2947 20.0898C70.8952 20.8688 70.6955 21.7777 70.6955 22.8164C70.6955 23.8551 70.8952 24.764 71.2947 25.543C71.6942 26.322 72.2535 26.9412 72.9726 27.4007C73.6917 27.8401 74.5107 28.0598 75.4295 28.0598Z" fill="white"/>
<path d="M98.3944 30.307L103.458 15.3258H106.305L101.211 30.307H98.3944ZM88.297 30.307L93.2708 15.3258H95.8476L90.9337 30.307H88.297ZM88.0873 30.307L82.9937 15.3258H85.8701L90.8139 30.307H88.0873ZM98.3944 30.307L93.4806 15.3258H96.0873L101.031 30.307H98.3944Z" fill="white"/>
</g>
</g>
<defs>
<clipPath id="clip0_2015_425">
<rect width="106.667" height="40" fill="white"/>
</clipPath>
<clipPath id="clip1_2015_425">
<rect width="106.667" height="40" fill="white"/>
</clipPath>
</defs>
</svg>
